<?xml version="1.0" encoding="UTF-8" standalone="no"?>
<!-- Created with Inkscape (http://www.inkscape.org/) -->

<svg
   xmlns:osb="http://www.openswatchbook.org/uri/2009/osb"
   xmlns:dc="http://purl.org/dc/elements/1.1/"
   xmlns:cc="http://creativecommons.org/ns#"
   xmlns:rdf="http://www.w3.org/1999/02/22-rdf-syntax-ns#"
   xmlns:svg="http://www.w3.org/2000/svg"
   xmlns="http://www.w3.org/2000/svg"
   xmlns:xlink="http://www.w3.org/1999/xlink"
   xmlns:sodipodi="http://sodipodi.sourceforge.net/DTD/sodipodi-0.dtd"
   xmlns:inkscape="http://www.inkscape.org/namespaces/inkscape"
   width="44.103035mm"
   height="49.092068mm"
   viewBox="0 0 156.2706 173.94827"
   id="svg5485"
   version="1.1"
   inkscape:version="0.91 r13725"
   sodipodi:docname="jester.svg">
  <defs
     id="defs5487">
    <linearGradient
       id="linearGradient5712"
       osb:paint="solid"
       gradientTransform="translate(9.8994942,-4.2426406)">
      <stop
         style="stop-color:#afa86d;stop-opacity:1;"
         offset="0"
         id="stop5714" />
    </linearGradient>
    <linearGradient
       id="linearGradient5706"
       osb:paint="solid">
      <stop
         style="stop-color:#c6c197;stop-opacity:1;"
         offset="0"
         id="stop5708" />
    </linearGradient>
    <linearGradient
       id="linearGradient5700"
       osb:paint="solid"
       gradientTransform="translate(4.9497472,-2.1213203)">
      <stop
         style="stop-color:#95d958;stop-opacity:1;"
         offset="0"
         id="stop5702" />
    </linearGradient>
    <linearGradient
       id="linearGradient5694"
       osb:paint="solid"
       gradientTransform="translate(4.9497472,-2.1213203)">
      <stop
         style="stop-color:#f96a62;stop-opacity:1;"
         offset="0"
         id="stop5696" />
    </linearGradient>
    <linearGradient
       id="linearGradient5688"
       osb:paint="solid"
       gradientTransform="translate(9.8994942,-4.2426406)">
      <stop
         style="stop-color:#fbff57;stop-opacity:1;"
         offset="0"
         id="stop5690" />
    </linearGradient>
    <linearGradient
       id="linearGradient5682"
       osb:paint="solid">
      <stop
         style="stop-color:#000000;stop-opacity:1;"
         offset="0"
         id="stop5684" />
    </linearGradient>
    <linearGradient
       inkscape:collect="always"
       xlink:href="#linearGradient5682"
       id="linearGradient5686"
       x1="175.59781"
       y1="197.14571"
       x2="290.23447"
       y2="197.14571"
       gradientUnits="userSpaceOnUse"
       gradientTransform="translate(4.9497472,-2.1213203)" />
    <linearGradient
       inkscape:collect="always"
       xlink:href="#linearGradient5688"
       id="linearGradient5692"
       x1="179.19302"
       y1="189.04433"
       x2="189.51868"
       y2="189.04433"
       gradientUnits="userSpaceOnUse"
       gradientTransform="translate(4.9497472,-2.1213203)" />
    <linearGradient
       inkscape:collect="always"
       xlink:href="#linearGradient5694"
       id="linearGradient5698"
       x1="249.19156"
       y1="174.62074"
       x2="277.81674"
       y2="174.62074"
       gradientUnits="userSpaceOnUse"
       gradientTransform="translate(4.9497472,-2.1213203)" />
    <linearGradient
       inkscape:collect="always"
       xlink:href="#linearGradient5700"
       id="linearGradient5704"
       x1="223.61195"
       y1="168.66811"
       x2="254.32056"
       y2="168.66811"
       gradientUnits="userSpaceOnUse"
       gradientTransform="translate(4.9497472,-2.1213203)" />
    <linearGradient
       inkscape:collect="always"
       xlink:href="#linearGradient5706"
       id="linearGradient5710"
       x1="191.31625"
       y1="223.75446"
       x2="254.34593"
       y2="223.75446"
       gradientUnits="userSpaceOnUse"
       gradientTransform="translate(4.9497472,-2.1213203)" />
    <linearGradient
       inkscape:collect="always"
       xlink:href="#linearGradient5712"
       id="linearGradient5716"
       x1="220.28253"
       y1="218.81136"
       x2="232.69859"
       y2="218.81136"
       gradientUnits="userSpaceOnUse"
       gradientTransform="translate(4.9497472,-2.1213203)" />
  </defs>
  <sodipodi:namedview
     id="base"
     pagecolor="#ffffff"
     bordercolor="#666666"
     borderopacity="1.0"
     inkscape:pageopacity="0.0"
     inkscape:pageshadow="2"
     inkscape:zoom="1.4142136"
     inkscape:cx="86.447579"
     inkscape:cy="71.226879"
     inkscape:document-units="px"
     inkscape:current-layer="layer1"
     showgrid="false"
     inkscape:window-width="1873"
     inkscape:window-height="1056"
     inkscape:window-x="47"
     inkscape:window-y="24"
     inkscape:window-maximized="1"
     fit-margin-top="0"
     fit-margin-left="0"
     fit-margin-right="0"
     fit-margin-bottom="0" />
  <metadata
     id="metadata5490">
    <rdf:RDF>
      <cc:Work
         rdf:about="">
        <dc:format>image/svg+xml</dc:format>
        <dc:type
           rdf:resource="http://purl.org/dc/dcmitype/StillImage" />
        <dc:title></dc:title>
      </cc:Work>
    </rdf:RDF>
  </metadata>
  <g
     inkscape:label="Layer 1"
     inkscape:groupmode="layer"
     id="layer1"
     transform="translate(-156.97771,-111.20306)">
    <path
       style="fill:url(#linearGradient5686);fill-opacity:1"
       d="m 181.01674,184.97075 c 0.61842,-2.35983 2.48643,-4.28977 5.09685,-5.26582 1.02615,-0.38368 2.02767,-0.89272 2.22558,-1.13119 0.23919,-0.28821 0.42828,-2.56986 0.56394,-6.805 l 0.20409,-6.37142 1.27563,-2.53688 c 0.70158,-1.39528 1.38948,-2.67668 1.52865,-2.84754 0.70731,-0.86842 4.77681,-3.32047 6.53448,-3.93731 4.1784,-1.46636 10.47237,-1.64499 15.13749,-0.42962 1.97166,0.51366 2.67288,0.56466 4.5,0.32729 1.1904,-0.15464 3.19374,-0.28534 4.45188,-0.29044 3.63759,-0.0147 3.83076,-0.1011 5.45787,-2.44071 2.54238,-3.65563 5.77497,-5.23079 12.51552,-6.09848 4.158,-0.53524 6.10848,-0.60874 10.03911,-0.37828 2.83536,0.16623 7.70373,0.30373 8.43546,0.23824 0.1845,-0.0165 0.5544,-0.80628 0.822,-1.75503 1.09398,-3.87874 5.83209,-6.96855 10.85493,-7.07868 2.65986,-0.0583 3.42561,0.4027 4.62918,2.78699 1.36842,2.71081 1.4316,3.73824 0.35553,5.78026 -1.15248,2.18694 -2.42544,3.42236 -4.50945,4.37645 -2.29593,1.05112 -4.00752,1.16334 -6.02346,0.39492 -1.25901,-0.47989 -1.69287,-0.53845 -1.88337,-0.25423 -0.29361,0.43806 0.0291,5.95642 0.36975,6.32235 0.12954,0.13918 1.22868,0.0975 2.44248,-0.0926 3.60228,-0.56423 7.32981,-0.4197 10.50546,0.40735 2.76399,0.71983 5.07252,1.54678 5.95236,2.13221 0.57426,0.3821 1.97346,2.45415 2.36802,3.50683 0.61308,1.63552 1.50417,7.10213 1.70316,10.44839 0.11268,1.89463 0.23781,3.78228 0.27813,4.19478 0.0403,0.4125 0.0905,1.59375 0.11154,2.625 0.0357,1.74985 0.0847,1.875 0.73383,1.875 1.84608,0 3.95916,0.96087 5.35341,2.43432 2.58045,2.727 2.82342,5.4631 0.73434,8.26943 -1.18737,1.59505 -4.07556,3.47109 -6.10719,3.96698 -3.29436,0.80408 -7.57611,-0.70749 -7.57611,-2.67456 0,-0.3575 -0.30009,-0.89299 -0.66687,-1.18998 -0.63675,-0.51563 -0.65031,-0.62013 -0.3,-2.31615 0.20178,-0.97689 0.36687,-1.9204 0.36687,-2.0967 0,-0.76776 -1.94355,-0.97017 -10.1325,-1.05523 l -8.4825,-0.0881 0.14634,0.75 c 0.25569,1.31058 0.98559,8.2157 1.20729,11.42189 0.0636,0.91953 0.39627,2.21029 0.73926,2.86834 0.59133,1.13451 0.60957,1.43437 0.35205,5.79203 -0.1842,3.11666 -0.17028,4.88617 0.0432,5.49852 0.27426,0.78671 0.19347,4.90868 -0.21633,11.03657 -0.47589,7.11656 -4.00542,14.47291 -8.76102,18.2599 -4.07094,3.2418 -9.61914,5.61178 -17.34576,7.40944 -2.60343,0.60571 -10.05738,1.09466 -13.2,0.86588 -1.485,-0.1081 -6.885,-0.24678 -12,-0.30816 -5.115,-0.0614 -10.5825,-0.27759 -12.15,-0.48048 -1.5675,-0.20289 -3.39459,-0.34182 -4.0602,-0.30874 -1.65132,0.0821 -2.56731,-0.75318 -2.34285,-2.13633 0.1398,-0.86149 -0.13248,-3.34685 -1.1085,-10.11886 -0.33855,-2.34886 -0.32601,-12.23839 0.0198,-15.525 0.73797,-7.0163 0.90504,-8.13674 1.46508,-9.825 1.42314,-4.29018 4.78377,-10.49451 6.80091,-12.55571 0.82512,-0.84313 3.05427,-2.23873 6.13548,-3.8412 1.75008,-0.91018 9.12174,-3.48972 11.06565,-3.87216 2.22945,-0.43861 2.76717,-0.80995 2.81883,-1.94661 0.0678,-1.49183 -0.41178,-4.27625 -0.78804,-4.57537 -0.32505,-0.25841 -4.17471,-0.93303 -6.35604,-1.11385 -3.3273,-0.27581 -13.66137,-0.43084 -14.4,-0.21603 -0.8976,0.26105 -0.90039,0.2689 -1.05135,2.9566 -0.1623,2.88981 -0.39513,3.45394 -2.13222,5.16629 -2.52171,2.48581 -6.48918,3.37941 -9.56613,2.15459 -2.32554,-0.92571 -4.02027,-2.41811 -4.93023,-4.34162 -0.88002,-1.86017 -0.94194,-3.33183 -0.25116,-5.96774 z"
       id="path5680"
       inkscape:connector-curvature="0" />
    <path
       style="fill:url(#linearGradient5692);fill-opacity:1"
       d="m 184.50577,188.16914 c 0.51504,1.23271 2.31435,2.94692 3.5757,3.4066 1.48158,0.53993 4.00962,0.48159 4.91784,-0.1135 1.00248,-0.65685 1.63482,-2.1792 1.43094,-3.44502 -0.6297,-3.90977 -0.82344,-4.48255 -1.75245,-5.18058 -1.77699,-1.33518 -4.74993,-1.23365 -6.88791,0.23524 -1.53669,1.05577 -2.07687,3.19998 -1.28412,5.09726 z"
       id="path5678"
       inkscape:connector-curvature="0" />
    <path
       style="fill:url(#linearGradient5694)"
       d="m 193.93366,179.45779 c 1.50951,0.41968 1.82343,0.63989 2.41641,1.69492 0.63831,1.1357 0.72321,1.18645 1.33962,0.80047 1.11204,-0.69631 3.54831,-1.09061 5.90814,-0.9562 1.2375,0.0705 4.005,0.21358 6.15,0.31798 2.145,0.10441 5.25,0.39379 6.9,0.64308 1.65,0.24928 4.1475,0.41101 5.55,0.35938 l 2.55,-0.0939 -0.0323,-2.1 c -0.0177,-1.155 -0.1389,-4.67401 -0.26919,-7.82003 -0.19758,-4.76987 -0.15126,-6.27633 0.27879,-9.06888 0.28362,-1.84187 0.42549,-3.49478 0.31524,-3.67315 -0.13587,-0.21985 -2.09955,-0.29429 -6.09648,-0.23112 -4.30503,0.068 -6.30081,-0.0175 -7.39605,-0.31686 -0.825,-0.22553 -2.99058,-0.4727 -4.81239,-0.54928 -9.77742,-0.41098 -13.95663,2.476 -14.08506,9.72993 -0.024,1.35883 -0.102,2.52936 -0.17316,2.60116 -0.0712,0.0718 -0.16293,1.94172 -0.20391,4.15535 l -0.0746,4.02477 1.7349,0.48235 z"
       id="path5676"
       inkscape:connector-curvature="0" />
    <path
       style="fill:url(#linearGradient5710);fill-opacity:1"
       d="m 196.82422,239.3646 c 0.26049,2.05758 0.47544,4.35258 0.47772,5.1 0.006,1.94677 0.22101,2.50699 1.13628,2.9588 0.84345,0.41633 1.75035,0.45523 19.55961,0.83893 5.1975,0.11198 9.99,0.21605 10.65,0.23125 1.68648,0.0388 6.23529,-0.35204 8.55,-0.7347 2.98764,-0.49392 9.82515,-2.83968 11.95254,-4.10059 1.99818,-1.18433 5.44746,-4.36642 5.44746,-5.02549 0,-0.21218 0.20886,-0.55911 0.46413,-0.77097 0.4452,-0.36948 1.51842,-2.44215 2.24634,-4.33827 1.63368,-4.25546 2.31216,-11.54437 1.84068,-19.77475 -0.1788,-3.12111 -0.25848,-5.78249 -0.17709,-5.91417 0.0814,-0.13169 -0.0439,-1.02056 -0.27837,-1.97526 -0.23448,-0.9547 -0.42489,-2.63479 -0.42315,-3.73354 0.003,-1.09874 -0.0914,-2.8816 -0.20715,-3.96191 -0.17298,-1.6152 -0.31977,-1.99894 -0.82623,-2.15968 -0.33873,-0.10751 -3.66987,-0.22554 -7.40253,-0.26229 -3.78069,-0.0372 -9.11196,-0.30217 -12.03663,-0.59818 -5.43702,-0.55029 -11.72196,-0.48925 -16.35,0.15877 -5.27172,0.73815 -14.55618,4.28678 -17.06079,6.52081 -0.47304,0.42193 -1.88352,2.4802 -3.67623,5.36465 -0.22716,0.36544 -0.41298,0.85516 -0.41298,1.08826 0,0.2331 -0.18024,0.57342 -0.40056,0.75626 -0.22032,0.18284 -0.58455,0.90812 -0.80943,1.61174 -0.22488,0.70361 -0.585,1.55993 -0.80028,1.90293 -0.21528,0.34301 -0.52086,1.62551 -0.67905,2.85 -0.93513,7.23806 -1.2102,9.58391 -1.28127,10.92636 -0.18036,3.40702 0.0532,9.53535 0.49698,13.04104 z"
       id="path5674"
       inkscape:connector-curvature="0" />
    <path
       style="fill:#000000"
       d="m 201.07249,214.63846 c 0.45852,-1.86571 1.39458,-3.68815 2.67735,-5.21264 1.04448,-1.2413 4.85193,-2.79803 6.88815,-2.81632 1.89264,-0.017 2.73078,0.47776 4.51068,2.66275 1.12911,1.38613 1.32789,1.84852 1.50483,3.50071 0.24189,2.2588 -0.31776,4.83115 -1.64277,7.55054 -1.45254,2.98121 -4.24803,5.33855 -6.78123,5.71843 -1.59333,0.23893 -4.09542,-0.52526 -4.85286,-1.48218 -0.29085,-0.36743 -0.95793,-0.92057 -1.48242,-1.22921 -0.52452,-0.30863 -1.01259,-0.78656 -1.08462,-1.06206 -0.30699,-1.17395 -0.14121,-5.98574 0.26289,-7.63002 z"
       id="path5672"
       inkscape:connector-curvature="0" />
    <path
       style="fill:url(#linearGradient5712)"
       d="m 205.07635,219.00759 c 0.96534,2.88371 1.40409,3.5167 2.59209,3.73957 0.90576,0.16992 1.19931,0.0758 1.92156,-0.61615 1.13964,-1.09184 2.343,-3.85046 2.58762,-5.93195 0.22911,-1.94925 -0.27909,-3.56879 -1.57686,-5.02533 -1.9656,-2.20607 -4.75788,-0.30289 -5.67219,3.8661 -0.4887,2.22836 -0.49551,2.04614 0.14778,3.96776 z"
       id="path5670"
       inkscape:connector-curvature="0" />
    <path
       style="fill:#000000"
       d="m 210.17965,235.74162 c 0.22899,-1.47298 2.51067,-5.61618 3.97212,-7.21276 0.65718,-0.71795 1.37763,-1.55911 1.60095,-1.86924 0.52422,-0.72794 3.24612,-1.45072 4.13502,-1.09801 0.9132,0.36234 2.61009,1.98786 2.61009,2.5003 0,0.23222 0.35184,1.08358 0.78189,1.89191 0.43002,0.80832 1.05354,2.19534 1.38561,3.08226 0.53436,1.42727 0.55893,1.74835 0.21381,2.79402 -0.21444,0.64979 -0.76881,1.50027 -1.23192,1.88996 -0.82281,0.69233 -0.94668,0.70531 -5.42073,0.5678 -7.62483,-0.23433 -8.36961,-0.46999 -8.04684,-2.54624 z"
       id="path5668"
       inkscape:connector-curvature="0" />
    <path
       style="fill:url(#linearGradient5712)"
       d="m 217.30444,234.75378 c 2.14332,0.0265 2.4648,-0.0386 2.592,-0.525 0.0799,-0.30541 0.0171,-0.55528 -0.13986,-0.55528 -0.15678,0 -0.2517,-0.16875 -0.21096,-0.375 0.0983,-0.49724 -0.74082,-2.04469 -1.46316,-2.69841 -0.55221,-0.49973 -0.60975,-0.48692 -1.35012,0.30071 -1.07508,1.14369 -2.05695,2.83525 -1.95774,3.3727 0.0652,0.35339 0.60837,0.4565 2.52984,0.48028 z"
       id="path5666"
       inkscape:connector-curvature="0" />
    <path
       style="fill:#000000"
       d="m 221.95858,214.78689 c 1.14225,-4.71251 3.07662,-6.66231 8.31582,-8.38226 3.71649,-1.22006 6.11037,-0.70039 8.96892,1.94703 1.52181,1.40941 1.60158,1.56064 1.88034,3.56532 0.16011,1.15141 0.42231,2.22466 0.58266,2.385 0.16032,0.16034 0.28773,1.04077 0.28311,1.95652 -0.0108,2.11684 -1.25367,5.02215 -2.99454,6.99932 -1.44219,1.63794 -2.05509,2.00028 -5.13255,3.03429 -5.07699,1.70583 -8.41716,0.96429 -9.91257,-2.20066 -0.3555,-0.75237 -0.96945,-1.63795 -1.36437,-1.96795 -0.73851,-0.61711 -1.28532,-2.313 -1.25745,-3.9 0.009,-0.495 0.29247,-2.04147 0.63063,-3.43661 z"
       id="path5664"
       inkscape:connector-curvature="0" />
    <path
       style="fill:url(#linearGradient5716);fill-opacity:1"
       d="m 226.18267,219.62552 c 0.54165,0.71389 1.21416,1.78563 1.49445,2.38165 0.69198,1.47141 1.23723,1.85982 2.72901,1.94403 3.75027,0.21171 6.98367,-2.4416 7.23339,-5.93568 0.11778,-1.64831 -0.9666,-5.41597 -1.94169,-6.74624 -1.42398,-1.94267 -4.20396,-2.42092 -6.57402,-1.13096 -1.13769,0.6192 -1.58703,1.12272 -2.3601,2.64453 -0.52515,1.03385 -1.07655,2.61343 -1.22529,3.51018 -0.14874,0.89676 -0.28623,1.72138 -0.30552,1.83249 -0.0192,0.11111 0.40809,0.78611 0.94977,1.5 z"
       id="path5662"
       inkscape:connector-curvature="0" />
    <path
       style="fill:url(#linearGradient5700)"
       d="m 224.90857,190.79359 c 0.29265,0.54679 0.65565,0.57772 6.225,0.53039 4.0077,-0.0341 7.75176,0.136 11.61426,0.5275 3.69816,0.37485 7.26552,0.54487 10.15761,0.48411 l 4.45758,-0.0936 -0.21351,-1.70891 c -0.30951,-2.47731 -0.84219,-3.35831 -2.03439,-3.36477 -0.53202,-0.003 -2.11479,-0.19268 -3.51729,-0.42177 -2.88951,-0.47198 -5.77764,-0.55213 -18.225,-0.50571 l -8.775,0.0327 0,1.96972 c 0,1.08335 0.13983,2.23101 0.31074,2.55037 z"
       id="path5660"
       inkscape:connector-curvature="0" />
    <path
       style="fill:url(#linearGradient5704);fill-opacity:1"
       d="m 228.92002,180.55182 c 0.027,1.88012 0.0503,1.93436 0.92781,2.16958 1.27005,0.34046 13.02417,0.0705 14.04453,-0.32257 0.46449,-0.17893 1.38174,-0.32533 2.03835,-0.32533 1.62165,0 4.56831,-0.78633 6.56712,-1.75247 2.25144,-1.08824 3.25308,-2.67637 4.81104,-7.62809 0.68691,-2.18319 1.43982,-4.5783 1.67319,-5.32247 0.67035,-2.13782 0.0703,-14.81424 -0.76521,-16.16618 -0.25842,-0.41812 -6.79446,-0.96163 -11.86902,-0.98697 -3.81306,-0.019 -9.19167,0.59871 -11.27409,1.29486 -2.07582,0.69395 -3.69675,2.88974 -4.89846,6.63576 -0.8268,2.57729 -1.04022,4.01777 -1.27803,8.62556 -0.0979,1.8975 -0.23382,3.5122 -0.30198,3.58824 -0.0682,0.076 -0.0291,1.96603 0.0865,4.2 0.11571,2.23396 0.22293,4.9295 0.23823,5.99008 z"
       id="path5658"
       inkscape:connector-curvature="0" />
    <path
       style="fill:url(#linearGradient5698);fill-opacity:1"
       d="m 261.19783,184.06845 c 3.3825,0.20911 9.0525,0.37123 12.6,0.36026 3.5475,-0.011 6.94188,0.0744 7.54308,0.18982 l 1.09308,0.20977 0.16176,-1.4524 c 0.49752,-4.4666 -0.13677,-12.3229 -1.32501,-16.41243 -0.95934,-3.3016 -2.11905,-4.48404 -5.37291,-5.47813 -4.50957,-1.37773 -7.77327,-1.65706 -10.65,-0.91152 l -1.5,0.38875 -0.0401,2.23046 c -0.0219,1.22676 -0.1908,2.61051 -0.375,3.075 -0.1842,0.46449 -0.33456,1.13949 -0.33414,1.5 0,0.8513 -1.66956,6.29776 -2.4195,7.88833 -0.31968,0.67807 -0.58125,1.39583 -0.58125,1.59501 0,0.97113 -3.10926,4.23884 -4.92825,5.17941 -1.07886,0.55785 -1.12947,0.6366 -0.6,0.93336 0.31803,0.17826 3.34575,0.4952 6.72824,0.70431 z"
       id="path5656"
       inkscape:connector-curvature="0" />
    <path
       style="fill:url(#linearGradient5688)"
       d="m 265.57534,147.40702 c 1.3401,1.09165 1.90836,1.36648 2.82546,1.36648 1.59768,0 1.98873,-0.20396 2.74866,-1.43353 1.05366,-1.70488 0.72108,-3.60669 -0.89574,-5.12206 -0.63312,-0.5934 -0.94785,-0.67469 -1.97937,-0.51125 -2.08227,0.32994 -4.33935,2.38333 -4.36968,3.97536 -0.004,0.19719 0.74805,0.97344 1.67067,1.725 z"
       id="path5654"
       inkscape:connector-curvature="0" />
    <path
       style="fill:url(#linearGradient5688)"
       d="m 283.84597,190.66421 c 0.24651,0.47261 0.44901,1.22007 0.45,1.66102 0,0.64803 0.20112,0.8675 1.04124,1.14477 2.38524,0.7872 4.26942,0.14643 5.25603,-1.78749 0.72159,-1.41442 0.54186,-2.0761 -0.99036,-3.6465 -1.90764,-1.95514 -4.2726,-1.69874 -5.71206,0.6193 -0.59136,0.95233 -0.59154,0.96062 -0.0448,2.0089 z"
       id="path5574"
       inkscape:connector-curvature="0" />
  </g>
</svg>
